<svg id="Bar_Graph" data-name="Bar Graph" xmlns="http://www.w3.org/2000/svg" xmlns:xlink="http://www.w3.org/1999/xlink" width="420" height="195" viewBox="0 0 420 195">
  <metadata><?xpacket begin="﻿" id="W5M0MpCehiHzreSzNTczkc9d"?>
<x:xmpmeta xmlns:x="adobe:ns:meta/" x:xmptk="Adobe XMP Core 5.6-c138 79.159824, 2016/09/14-01:09:01        ">
   <rdf:RDF xmlns:rdf="http://www.w3.org/1999/02/22-rdf-syntax-ns#">
      <rdf:Description rdf:about=""/>
   </rdf:RDF>
</x:xmpmeta>
                                                                                                    
                                                                                                    
                                                                                                    
                                                                                                    
                                                                                                    
                                                                                                    
                                                                                                    
                                                                                                    
                                                                                                    
                                                                                                    
                                                                                                    
                                                                                                    
                                                                                                    
                                                                                                    
                                                                                                    
                                                                                                    
                                                                                                    
                                                                                                    
                                                                                                    
                                                                                                    
                           
<?xpacket end="w"?></metadata>
<defs>
    <style>
      .cls-1 {
        fill: #eee;
      }

      .cls-1, .cls-2, .cls-4, .cls-5, .cls-6, .cls-7, .cls-8, .cls-9 {
        fill-rule: evenodd;
      }

      .cls-11, .cls-12, .cls-2 {
        fill: #999;
      }

      .cls-10, .cls-3 {
        fill: #fe7f13;
      }

      .cls-4 {
        fill-opacity: 0;
      }

      .cls-5 {
        fill: url(#linear-gradient);
      }

      .cls-6 {
        opacity: 0.07;
      }

      .cls-7 {
        fill: #ff9b13;
      }

      .cls-8 {
        fill: #124570;
      }

      .cls-9 {
        fill: #2398f4;
      }

      .cls-10, .cls-11 {
        font-size: 11px;
      }

      .cls-10, .cls-11, .cls-12 {
        text-anchor: end;
        font-family: "Myriad Pro";
      }

      .cls-12 {
        font-size: 10px;
      }
    </style>
    <linearGradient id="linear-gradient" x1="600" x2="600" y2="1500" gradientUnits="userSpaceOnUse">
      <stop offset="0.48" stop-opacity="0.067"/>
      <stop offset="0.52" stop-opacity="0"/>
    </linearGradient>
  </defs>
  <g id="Base">
    <path id="Composite_Path" data-name="Composite Path" class="cls-1" d="M885,611h1v4h-1v-4Zm-144,0h1v4h-1v-4Zm64,0h1v4h-1v-4Zm-144,0h1v4h-1v-4Zm-80,0h1v4h-1v-4Zm288,0h1v4h-1v-4Zm-144,0h1v4h-1v-4Zm64,0h1v4h-1v-4Zm-144,0h1v4h-1v-4Zm-80,0h1v4h-1v-4Zm272,0h1v4h-1v-4Zm-144,0h1v4h-1v-4Zm64,0h1v4h-1v-4Zm-144,0h1v4h-1v-4Zm-80,0h1v4h-1v-4Zm320,0h1v4h-1v-4Zm-144,0h1v4h-1v-4Zm64,0h1v4h-1v-4Zm-144,0h1v4h-1v-4Zm-80,0h1v4h-1v-4Zm272,0h1v4h-1v-4Zm-144,0h1v4h-1v-4Zm-80,0h1v4h-1v-4Zm-80,0h1v4h-1v-4Z" transform="translate(-485 -447)"/>
    <path id="Composite_Path-2" data-name="Composite Path" class="cls-2" d="M773,611h1v8h-1v-8Zm-224,0h1v8h-1v-8Zm112,0h1v8h-1v-8Z" transform="translate(-485 -447)"/>
    <rect id="Path" class="cls-3" x="400" y="164" width="1" height="8"/>
    <path id="Composite_Path-3" data-name="Composite Path" class="cls-4" d="M485,457H895v1H485v-1Zm0,30H895v1H485v-1Zm0,30H895v1H485v-1Zm0,30H895v1H485v-1Zm0,30H895v1H485v-1Z" transform="translate(-485 -447)"/>
    <path id="Path-2" data-name="Path" class="cls-5" d="M485,637c0,2.761,3.134,5,7,5H898c3.866,0,7-2.239,7-5V607H485v30Z" transform="translate(-485 -447)"/>
    <path id="Path-3" data-name="Path" class="cls-6" d="M485,608H905v-1H485v1Z" transform="translate(-485 -447)"/>
  </g>
  <g id="Data">
    <path id="Path-4" data-name="Path" class="cls-7" d="M878,552v56h12V550a4,4,0,0,0-4-4h-4a4,4,0,0,0-4,4v2Z" transform="translate(-485 -447)"/>
    <path id="Composite_Path-4" data-name="Composite Path" class="cls-8" d="M542,564v44h12V564a4,4,0,0,0-4-4h-4A4,4,0,0,0,542,564Zm16-16v60h12V546a4,4,0,0,0-4-4h-4a4,4,0,0,0-4,4v2Zm-32,24v36h12V570a4,4,0,0,0-4-4h-4a4,4,0,0,0-4,4v2Zm128-6v42h12V566a4,4,0,0,0-4-4h-4A4,4,0,0,0,654,566Zm-32-24v66h12V542a4,4,0,0,0-4-4h-4A4,4,0,0,0,622,542Zm-48-50V608h12V492a4,4,0,0,0-4-4h-4A4,4,0,0,0,574,492Zm112,66v50h12V558a4,4,0,0,0-4-4h-4A4,4,0,0,0,686,558Zm-80-24v74h12V534a4,4,0,0,0-4-4h-4A4,4,0,0,0,606,534Zm64,40v34h12V574a4,4,0,0,0-4-4h-4A4,4,0,0,0,670,574Zm-32-16v50h12V556a4,4,0,0,0-4-4h-4a4,4,0,0,0-4,4v2Zm-48-48v98h12V508a4,4,0,0,0-4-4h-4a4,4,0,0,0-4,4v2Zm112,24v74h12V532a4,4,0,0,0-4-4h-4a4,4,0,0,0-4,4v2Zm112,22v52h12V556a4,4,0,0,0-4-4h-4A4,4,0,0,0,814,556Zm-48,8v44h12V564a4,4,0,0,0-4-4h-4A4,4,0,0,0,766,564Zm-32,16v28h12V580a4,4,0,0,0-4-4h-4A4,4,0,0,0,734,580Zm112-28v56h12V552a4,4,0,0,0-4-4h-4A4,4,0,0,0,846,552Zm-48-12v68h12V538a4,4,0,0,0-4-4h-4a4,4,0,0,0-4,4v2Zm-80,24v44h12V564a4,4,0,0,0-4-4h-4A4,4,0,0,0,718,564Zm112-28v72h12V534a4,4,0,0,0-4-4h-4a4,4,0,0,0-4,4v2Zm-48,12v60h12V546a4,4,0,0,0-4-4h-4a4,4,0,0,0-4,4v2Zm-32,24v36h12V570a4,4,0,0,0-4-4h-4a4,4,0,0,0-4,4v2Zm112,0v36h12V570a4,4,0,0,0-4-4h-4a4,4,0,0,0-4,4v2Zm-352-8v44h12V564a4,4,0,0,0-4-4h-4A4,4,0,0,0,510,564Z" transform="translate(-485 -447)"/>
    <path id="Composite_Path-5" data-name="Composite Path" class="cls-9" d="M798,586v22h12V586a4,4,0,0,0-4-4h-4A4,4,0,0,0,798,586Zm16-16v38h12V568a4,4,0,0,0-4-4h-4a4,4,0,0,0-4,4v2Zm-32,24v14h12V592a4,4,0,0,0-4-4h-4a4,4,0,0,0-4,4v2Zm96,10v4h12v-4a4,4,0,0,0-4-4h-4A4,4,0,0,0,878,604Zm-48-20v24h12V584a4,4,0,0,0-4-4h-4A4,4,0,0,0,830,584Zm32,12v12h12V596a4,4,0,0,0-4-4h-4A4,4,0,0,0,862,596Zm-16,6v6h12v-8a4,4,0,0,0-4-4h-4a4,4,0,0,0-4,4v2Zm-80-16v22h12V586a4,4,0,0,0-4-4h-4A4,4,0,0,0,766,586Zm-240,2v20h12V588a4,4,0,0,0-4-4h-4A4,4,0,0,0,526,588Zm32,2v18h12V590a4,4,0,0,0-4-4h-4A4,4,0,0,0,558,590Zm-16,6v12h12V596a4,4,0,0,0-4-4h-4A4,4,0,0,0,542,596Zm-32-6v18h12V588a4,4,0,0,0-4-4h-4a4,4,0,0,0-4,4v2Zm64-24v42h12V564a4,4,0,0,0-4-4h-4a4,4,0,0,0-4,4v2Zm112,37v5h12v-5a4,4,0,0,0-4-4h-4A4,4,0,0,0,686,603Zm-48-17v22h12V586a4,4,0,0,0-4-4h-4A4,4,0,0,0,638,586Zm-32,16v6h12v-6a4,4,0,0,0-4-4h-4A4,4,0,0,0,606,602Zm112-3v9h12v-9a4,4,0,0,0-4-4h-4A4,4,0,0,0,718,599Zm-48-12v21h12V585a4,4,0,0,0-4-4h-4a4,4,0,0,0-4,4v2Zm-80-1v22h12V586a4,4,0,0,0-4-4h-4A4,4,0,0,0,590,586Zm112-3v25h12V581a4,4,0,0,0-4-4h-4a4,4,0,0,0-4,4v2Zm-48,12v13h12V593a4,4,0,0,0-4-4h-4a4,4,0,0,0-4,4v2Zm-32-1v14h12V592a4,4,0,0,0-4-4h-4a4,4,0,0,0-4,4v2Zm112,0v14h12V592a4,4,0,0,0-4-4h-4a4,4,0,0,0-4,4v2Zm16-12v26h12V580a4,4,0,0,0-4-4h-4a4,4,0,0,0-4,4v2Z" transform="translate(-485 -447)"/>
  </g>
  <g id="Labels">
    <text id="TODAY" class="cls-10" y="-47">TODAY</text>
    <text id="_07_14_11" data-name="07/14/11" class="cls-11" y="-47">07/14/11</text>
    <text id="_07_07_11" data-name="07/07/11" class="cls-11" y="-47">07/07/11</text>
    <text id="_06_30_11" data-name="06/30/11" class="cls-11" y="-47">06/30/11</text>
    <text id="_60_50_40_30_20_10" data-name="60 50 40 30 20 10" class="cls-12" y="-47">60<tspan x="0" dy="12">50</tspan><tspan x="0" dy="12">40</tspan><tspan x="0" dy="12">30</tspan><tspan x="0" dy="12">20</tspan><tspan x="0" dy="12">10</tspan></text>
  </g>
</svg>
