<svg xmlns="http://www.w3.org/2000/svg" xmlns:xlink="http://www.w3.org/1999/xlink" width="25" height="22" viewBox="0 0 25 22">
  <metadata><?xpacket begin="﻿" id="W5M0MpCehiHzreSzNTczkc9d"?>
<x:xmpmeta xmlns:x="adobe:ns:meta/" x:xmptk="Adobe XMP Core 5.6-c138 79.159824, 2016/09/14-01:09:01        ">
   <rdf:RDF xmlns:rdf="http://www.w3.org/1999/02/22-rdf-syntax-ns#">
      <rdf:Description rdf:about=""/>
   </rdf:RDF>
</x:xmpmeta>
                                                                                                    
                                                                                                    
                                                                                                    
                                                                                                    
                                                                                                    
                                                                                                    
                                                                                                    
                                                                                                    
                                                                                                    
                                                                                                    
                                                                                                    
                                                                                                    
                                                                                                    
                                                                                                    
                                                                                                    
                                                                                                    
                                                                                                    
                                                                                                    
                                                                                                    
                                                                                                    
                           
<?xpacket end="w"?></metadata>
<defs>
    <style>
      .cls-1 {
        fill: #ddd;
      }

      .cls-1, .cls-2, .cls-3 {
        fill-rule: evenodd;
      }

      .cls-2 {
        fill: #fff;
      }

      .cls-3 {
        fill: url(#linear-gradient);
        filter: url(#filter);
      }
    </style>
    <linearGradient id="linear-gradient" x1="12.5" x2="12.5" y2="22" gradientUnits="userSpaceOnUse">
      <stop offset="0.47" stop-color="#f90"/>
      <stop offset="0.53" stop-color="#f60"/>
    </linearGradient>
    <filter id="filter" x="1" y="0" width="24" height="22" filterUnits="userSpaceOnUse">
      <feOffset result="offset" dy="1" in="SourceAlpha"/>
      <feGaussianBlur result="blur" stdDeviation="1.414"/>
      <feFlood result="flood" flood-opacity="0.14"/>
      <feComposite result="composite" operator="in" in2="blur"/>
      <feBlend result="blend" in="SourceGraphic"/>
    </filter>
  </defs>
  <path id="Path" class="cls-1" d="M0,6A3,3,0,0,1,3,3H15a3,3,0,0,1,3,3V18a3,3,0,0,1-3,3H3a3,3,0,0,1-3-3V6Z"/>
  <path id="Path-2" data-name="Path" class="cls-2" d="M1,6A2,2,0,0,1,3,4H15a2,2,0,0,1,2,2V18a2,2,0,0,1-2,2H3a2,2,0,0,1-2-2V6Z"/>
  <path id="Path-3" data-name="Path" class="cls-3" d="M3.509,8.661A18.5,18.5,0,0,0,2,10.24L8.486,19S15.561,6.49,22,.247C21.764,0.148,22.047,0,20.066,0,9.783,8.414,8.014,12.56,8.014,12.56S3.706,8.549,3.509,8.661Z"/>
</svg>
